<svg id="Layer_1" data-name="Layer 1" xmlns="http://www.w3.org/2000/svg" viewBox="0 0 525 525"><defs><style>.cls-1{fill:#e31c23;}</style></defs><path class="cls-1" d="M350,122.5a52.54,52.54,0,1,0-37.11-15.39A52.49,52.49,0,0,0,350,122.5ZM350,35a35,35,0,1,1-24.75,10.25A35,35,0,0,1,350,35Z" transform="translate(-87.5 -17.5)"/><path class="cls-1" d="M479.18,96.92a17.5,17.5,0,0,0-15.43-9.42h-17.5a17.5,17.5,0,1,0,0,35h17.5a17.49,17.49,0,0,0,14.66-8A26.28,26.28,0,0,1,498.75,140v61.25H463.22c-4.25-38.18-35.72-70-71.28-70H308.06c-35.57,0-67,31.82-71.29,70H201.25V140a26.26,26.26,0,0,1,20.33-25.52,17.52,17.52,0,0,0,14.67,8h17.5a17.5,17.5,0,0,0,0-35h-17.5a17.5,17.5,0,0,0-15.44,9.42A43.69,43.69,0,0,0,183.75,140v61.25h-70a8.77,8.77,0,0,0-8.58,7l-17.5,87.5a8.75,8.75,0,0,0,8.58,10.5h507.5a8.75,8.75,0,0,0,8.57-10.5l-17.5-87.5a8.75,8.75,0,0,0-8.57-7h-70V140a43.71,43.71,0,0,0-37.07-43.08ZM308.06,148.75h83.88c28,0,49.58,26.19,53.63,52.5H254.43c4-26.31,25.65-52.5,53.63-52.5Zm271,70,14,70H106.92l14-70Z" transform="translate(-87.5 -17.5)"/><path class="cls-1" d="M96.25,542.5h105a8.74,8.74,0,0,0,8.75-8.75A43.8,43.8,0,0,0,166.25,490h-35A43.8,43.8,0,0,0,87.5,533.75a8.74,8.74,0,0,0,8.75,8.75Zm35-35h35A26.28,26.28,0,0,1,191,525H106.5a26.28,26.28,0,0,1,24.75-17.5Z" transform="translate(-87.5 -17.5)"/><path class="cls-1" d="M122.5,455a26.26,26.26,0,1,0,7.69-18.56A26.26,26.26,0,0,0,122.5,455Zm35,0a8.74,8.74,0,1,1-2.56-6.19A8.74,8.74,0,0,1,157.5,455Z" transform="translate(-87.5 -17.5)"/><path class="cls-1" d="M288.75,533.75a8.74,8.74,0,0,0,8.75,8.75h105a8.74,8.74,0,0,0,8.75-8.75A43.8,43.8,0,0,0,367.5,490h-35a43.8,43.8,0,0,0-43.75,43.75ZM332.5,507.5h35A26.28,26.28,0,0,1,392.25,525h-84.5a26.28,26.28,0,0,1,24.75-17.5Z" transform="translate(-87.5 -17.5)"/><path class="cls-1" d="M376.25,455a26.26,26.26,0,1,0-7.69,18.56A26.26,26.26,0,0,0,376.25,455Zm-35,0a8.75,8.75,0,1,1,8.75,8.75A8.74,8.74,0,0,1,341.25,455Z" transform="translate(-87.5 -17.5)"/><path class="cls-1" d="M568.75,490h-35A43.8,43.8,0,0,0,490,533.75a8.74,8.74,0,0,0,8.75,8.75h105a8.74,8.74,0,0,0,8.75-8.75A43.8,43.8,0,0,0,568.75,490ZM509,525a26.28,26.28,0,0,1,24.75-17.5h35A26.28,26.28,0,0,1,593.5,525Z" transform="translate(-87.5 -17.5)"/><path class="cls-1" d="M525,455a26.26,26.26,0,1,0,7.69-18.56A26.26,26.26,0,0,0,525,455Zm35,0a8.74,8.74,0,1,1-2.56-6.19A8.74,8.74,0,0,1,560,455Z" transform="translate(-87.5 -17.5)"/><path class="cls-1" d="M183.75,428.75a8.74,8.74,0,0,0,8.75,8.75h105a8.74,8.74,0,0,0,8.75-8.75A43.8,43.8,0,0,0,262.5,385h-35a43.8,43.8,0,0,0-43.75,43.75ZM227.5,402.5h35A26.28,26.28,0,0,1,287.25,420h-84.5a26.28,26.28,0,0,1,24.75-17.5Z" transform="translate(-87.5 -17.5)"/><path class="cls-1" d="M271.25,350a26.26,26.26,0,1,0-7.69,18.56A26.26,26.26,0,0,0,271.25,350Zm-35,0a8.75,8.75,0,1,1,8.75,8.75A8.74,8.74,0,0,1,236.25,350Z" transform="translate(-87.5 -17.5)"/><path class="cls-1" d="M516.25,428.75A43.8,43.8,0,0,0,472.5,385h-35a43.8,43.8,0,0,0-43.75,43.75,8.74,8.74,0,0,0,8.75,8.75h105a8.74,8.74,0,0,0,8.75-8.75ZM412.75,420a26.28,26.28,0,0,1,24.75-17.5h35A26.28,26.28,0,0,1,497.26,420Z" transform="translate(-87.5 -17.5)"/><path class="cls-1" d="M481.25,350a26.26,26.26,0,1,0-7.69,18.56A26.26,26.26,0,0,0,481.25,350Zm-35,0a8.75,8.75,0,1,1,8.75,8.75A8.74,8.74,0,0,1,446.25,350Z" transform="translate(-87.5 -17.5)"/></svg>