<svg id="Layer_1" data-name="Layer 1" xmlns="http://www.w3.org/2000/svg" viewBox="0 0 542.5 542.55"><defs><style>.cls-1{fill:#e31c23;}</style></defs><path class="cls-1" d="M105,516.25h54.34a97,97,0,0,1-6.77-17.5H105A8.75,8.75,0,0,1,96.25,490V253.75A8.75,8.75,0,0,1,105,245h26.25l6.34,12.66a8.74,8.74,0,0,0,7.82,4.84h41.68a8.74,8.74,0,0,0,7.82-4.84L201.25,245H227.5a8.74,8.74,0,0,1,8.75,8.75V376.69c2.89-.25,5.79-.44,8.75-.44s5.86.19,8.75.44V253.75A26.26,26.26,0,0,0,227.5,227.5H105a26.26,26.26,0,0,0-26.25,26.25V490A26.26,26.26,0,0,0,105,516.25Z" transform="translate(-78.75 -8.75)"/><path class="cls-1" d="M560,70h43.75V227.5H560Z" transform="translate(-78.75 -8.75)"/><path class="cls-1" d="M481.25,8.75H525V227.5H481.25Z" transform="translate(-78.75 -8.75)"/><path class="cls-1" d="M402.5,113.75h43.75V227.5H402.5Z" transform="translate(-78.75 -8.75)"/><path class="cls-1" d="M385,245H621.25v17.5H385Z" transform="translate(-78.75 -8.75)"/><path class="cls-1" d="M348.88,87.5l-55.75-39V78.75H157.51a8.75,8.75,0,0,0-8.75,8.75v105h17.5V96.25H293.14v30.27Z" transform="translate(-78.75 -8.75)"/><path class="cls-1" d="M385,463.75v17.5H542.5a8.74,8.74,0,0,0,8.75-8.75V354.38h30.27l-39-55.75-39,55.75h30.27V463.76Z" transform="translate(-78.75 -8.75)"/><path class="cls-1" d="M236.25,477.63l-14.94,14.94,12.37,12.37,17.5-17.5h0a8.76,8.76,0,0,0,2.56-6.19v-52.5h-17.5Z" transform="translate(-78.75 -8.75)"/><path class="cls-1" d="M166.25,472.5a78.75,78.75,0,0,0,118.12,68.25l-8.75-15.14A61.25,61.25,0,1,1,306,468.13H280l35,46.66,35-46.66H323.53a78.7,78.7,0,0,0-157.28,4.37Z" transform="translate(-78.75 -8.75)"/></svg>